<svg version="1.1" id="Layer_1" xmlns="http://www.w3.org/2000/svg" xmlns:xlink="http://www.w3.org/1999/xlink" x="0px" y="0px"
	 width="100%" viewBox="0 0 1024 544" enable-background="new 0 0 1024 544" xml:space="preserve">
<path fill="#000000" opacity="1.000000" stroke="none" 
	d="
M550.758789,468.994751 
	C505.437866,480.961151 464.138733,473.079041 428.104553,443.906281 
	C391.863831,414.566345 374.556854,375.660126 376.997589,328.897369 
	C378.097717,307.819519 386.288513,288.458313 395.536896,269.682465 
	C410.673187,238.953247 429.673462,210.569992 448.638672,182.153870 
	C464.449341,158.464249 481.193695,135.374084 495.219330,110.526047 
	C498.000092,105.599602 500.445282,100.483536 503.036987,95.450661 
	C505.253418,91.146576 508.567139,88.122559 513.563477,88.234421 
	C517.939758,88.332397 520.910034,91.281441 522.789062,94.978310 
	C545.147400,138.967545 576.156860,177.443634 601.921753,219.261063 
	C617.228882,244.104980 632.435547,269.023529 641.979248,296.784515 
	C656.932678,340.281494 649.175354,380.557861 623.010132,417.531555 
	C605.105896,442.831757 580.807251,459.748810 550.758789,468.994751 
M422.394440,266.847046 
	C412.785675,284.839264 404.116455,303.187927 400.101074,323.931366 
	C403.047791,322.985291 404.331604,321.141510 405.987061,319.822723 
	C432.943695,298.347961 462.405884,292.656586 494.906403,305.505676 
	C507.701721,310.564301 518.483582,318.496246 528.072510,328.190643 
	C540.106934,340.357391 554.268372,347.492065 571.764587,346.662811 
	C583.236511,346.119080 593.512512,342.158173 602.792664,335.465912 
	C605.068909,333.824432 607.485962,332.617981 609.967346,335.080536 
	C612.371521,337.466461 612.909363,340.240509 611.214661,343.266724 
	C610.566040,344.425018 609.800720,345.526733 609.007812,346.594269 
	C593.459595,367.527863 569.126465,374.471375 544.063660,365.600647 
	C529.294495,360.373169 518.181458,350.263000 507.007538,339.920074 
	C476.838745,311.994965 432.603424,316.702179 408.841034,350.141235 
	C405.257690,355.183807 404.354553,360.166138 407.108032,361.840637 
	C412.243866,364.963928 414.221497,359.956360 416.681610,357.311096 
	C428.512360,344.590057 443.078125,338.276459 460.335724,338.810547 
	C475.891266,339.291992 488.810394,346.100128 499.811127,356.873291 
	C509.499084,366.360809 519.760620,375.122284 532.400818,380.504639 
	C559.423767,392.011292 585.056641,389.912231 608.725708,371.950592 
	C617.775757,365.082886 623.643616,355.863647 625.945679,344.632538 
	C628.615845,331.605743 625.646118,319.129791 621.616943,306.879730 
	C613.271179,281.506134 599.698853,258.751312 585.699158,236.240295 
	C565.106506,203.128082 542.150146,171.573975 521.268799,138.650848 
	C518.717163,134.627762 516.192017,130.587906 513.703918,126.634155 
	C511.389465,127.379341 510.888489,129.092209 510.011902,130.449081 
	C503.774963,140.103485 497.669952,149.845215 491.310883,159.418289 
	C467.902679,194.657486 443.180481,229.051102 422.394440,266.847046 
z"/>
</svg>